%TF.GenerationSoftware,KiCad,Pcbnew,9.0.5*%
%TF.CreationDate,2026-03-24T08:14:00+01:00*%
%TF.ProjectId,coussin,636f7573-7369-46e2-9e6b-696361645f70,rev?*%
%TF.SameCoordinates,Original*%
%TF.FileFunction,Legend,Top*%
%TF.FilePolarity,Positive*%
%FSLAX46Y46*%
G04 Gerber Fmt 4.6, Leading zero omitted, Abs format (unit mm)*
G04 Created by KiCad (PCBNEW 9.0.5) date 2026-03-24 08:14:00*
%MOMM*%
%LPD*%
G01*
G04 APERTURE LIST*
%ADD10C,0.100000*%
%ADD11C,0.150000*%
%ADD12C,0.120000*%
%ADD13C,0.127000*%
%ADD14C,0.200000*%
G04 APERTURE END LIST*
D10*
X116732455Y-67592133D02*
X117265789Y-67592133D01*
X116999122Y-67896895D02*
X116999122Y-67287371D01*
X117932456Y-67096895D02*
X117599122Y-67096895D01*
X117599122Y-67096895D02*
X117565789Y-67477847D01*
X117565789Y-67477847D02*
X117599122Y-67439752D01*
X117599122Y-67439752D02*
X117665789Y-67401657D01*
X117665789Y-67401657D02*
X117832456Y-67401657D01*
X117832456Y-67401657D02*
X117899122Y-67439752D01*
X117899122Y-67439752D02*
X117932456Y-67477847D01*
X117932456Y-67477847D02*
X117965789Y-67554038D01*
X117965789Y-67554038D02*
X117965789Y-67744514D01*
X117965789Y-67744514D02*
X117932456Y-67820704D01*
X117932456Y-67820704D02*
X117899122Y-67858800D01*
X117899122Y-67858800D02*
X117832456Y-67896895D01*
X117832456Y-67896895D02*
X117665789Y-67896895D01*
X117665789Y-67896895D02*
X117599122Y-67858800D01*
X117599122Y-67858800D02*
X117565789Y-67820704D01*
X118165789Y-67096895D02*
X118399123Y-67896895D01*
X118399123Y-67896895D02*
X118632456Y-67096895D01*
X155327693Y-66170038D02*
X155232455Y-66122419D01*
X155232455Y-66122419D02*
X155089598Y-66122419D01*
X155089598Y-66122419D02*
X154946741Y-66170038D01*
X154946741Y-66170038D02*
X154851503Y-66265276D01*
X154851503Y-66265276D02*
X154803884Y-66360514D01*
X154803884Y-66360514D02*
X154756265Y-66550990D01*
X154756265Y-66550990D02*
X154756265Y-66693847D01*
X154756265Y-66693847D02*
X154803884Y-66884323D01*
X154803884Y-66884323D02*
X154851503Y-66979561D01*
X154851503Y-66979561D02*
X154946741Y-67074800D01*
X154946741Y-67074800D02*
X155089598Y-67122419D01*
X155089598Y-67122419D02*
X155184836Y-67122419D01*
X155184836Y-67122419D02*
X155327693Y-67074800D01*
X155327693Y-67074800D02*
X155375312Y-67027180D01*
X155375312Y-67027180D02*
X155375312Y-66693847D01*
X155375312Y-66693847D02*
X155184836Y-66693847D01*
X155803884Y-67122419D02*
X155803884Y-66122419D01*
X155803884Y-66122419D02*
X156375312Y-67122419D01*
X156375312Y-67122419D02*
X156375312Y-66122419D01*
X156851503Y-67122419D02*
X156851503Y-66122419D01*
X156851503Y-66122419D02*
X157089598Y-66122419D01*
X157089598Y-66122419D02*
X157232455Y-66170038D01*
X157232455Y-66170038D02*
X157327693Y-66265276D01*
X157327693Y-66265276D02*
X157375312Y-66360514D01*
X157375312Y-66360514D02*
X157422931Y-66550990D01*
X157422931Y-66550990D02*
X157422931Y-66693847D01*
X157422931Y-66693847D02*
X157375312Y-66884323D01*
X157375312Y-66884323D02*
X157327693Y-66979561D01*
X157327693Y-66979561D02*
X157232455Y-67074800D01*
X157232455Y-67074800D02*
X157089598Y-67122419D01*
X157089598Y-67122419D02*
X156851503Y-67122419D01*
X122141979Y-67096895D02*
X122599122Y-67096895D01*
X122370550Y-67896895D02*
X122370550Y-67096895D01*
X122789598Y-67096895D02*
X123322932Y-67896895D01*
X123322932Y-67096895D02*
X122789598Y-67896895D01*
X125213408Y-67896895D02*
X124946741Y-67515942D01*
X124756265Y-67896895D02*
X124756265Y-67096895D01*
X124756265Y-67096895D02*
X125061027Y-67096895D01*
X125061027Y-67096895D02*
X125137217Y-67134990D01*
X125137217Y-67134990D02*
X125175312Y-67173085D01*
X125175312Y-67173085D02*
X125213408Y-67249276D01*
X125213408Y-67249276D02*
X125213408Y-67363561D01*
X125213408Y-67363561D02*
X125175312Y-67439752D01*
X125175312Y-67439752D02*
X125137217Y-67477847D01*
X125137217Y-67477847D02*
X125061027Y-67515942D01*
X125061027Y-67515942D02*
X124756265Y-67515942D01*
X125480074Y-67096895D02*
X126013408Y-67896895D01*
X126013408Y-67096895D02*
X125480074Y-67896895D01*
X119599122Y-67134990D02*
X119532455Y-67096895D01*
X119532455Y-67096895D02*
X119432455Y-67096895D01*
X119432455Y-67096895D02*
X119332455Y-67134990D01*
X119332455Y-67134990D02*
X119265789Y-67211180D01*
X119265789Y-67211180D02*
X119232455Y-67287371D01*
X119232455Y-67287371D02*
X119199122Y-67439752D01*
X119199122Y-67439752D02*
X119199122Y-67554038D01*
X119199122Y-67554038D02*
X119232455Y-67706419D01*
X119232455Y-67706419D02*
X119265789Y-67782609D01*
X119265789Y-67782609D02*
X119332455Y-67858800D01*
X119332455Y-67858800D02*
X119432455Y-67896895D01*
X119432455Y-67896895D02*
X119499122Y-67896895D01*
X119499122Y-67896895D02*
X119599122Y-67858800D01*
X119599122Y-67858800D02*
X119632455Y-67820704D01*
X119632455Y-67820704D02*
X119632455Y-67554038D01*
X119632455Y-67554038D02*
X119499122Y-67554038D01*
X119932455Y-67896895D02*
X119932455Y-67096895D01*
X119932455Y-67096895D02*
X120332455Y-67896895D01*
X120332455Y-67896895D02*
X120332455Y-67096895D01*
X120665788Y-67896895D02*
X120665788Y-67096895D01*
X120665788Y-67096895D02*
X120832455Y-67096895D01*
X120832455Y-67096895D02*
X120932455Y-67134990D01*
X120932455Y-67134990D02*
X120999122Y-67211180D01*
X120999122Y-67211180D02*
X121032455Y-67287371D01*
X121032455Y-67287371D02*
X121065788Y-67439752D01*
X121065788Y-67439752D02*
X121065788Y-67554038D01*
X121065788Y-67554038D02*
X121032455Y-67706419D01*
X121032455Y-67706419D02*
X120999122Y-67782609D01*
X120999122Y-67782609D02*
X120932455Y-67858800D01*
X120932455Y-67858800D02*
X120832455Y-67896895D01*
X120832455Y-67896895D02*
X120665788Y-67896895D01*
X151243884Y-66491466D02*
X152005789Y-66491466D01*
X151624836Y-66872419D02*
X151624836Y-66110514D01*
D11*
X164716819Y-95837333D02*
X165431104Y-95837333D01*
X165431104Y-95837333D02*
X165573961Y-95884952D01*
X165573961Y-95884952D02*
X165669200Y-95980190D01*
X165669200Y-95980190D02*
X165716819Y-96123047D01*
X165716819Y-96123047D02*
X165716819Y-96218285D01*
X164812057Y-95408761D02*
X164764438Y-95361142D01*
X164764438Y-95361142D02*
X164716819Y-95265904D01*
X164716819Y-95265904D02*
X164716819Y-95027809D01*
X164716819Y-95027809D02*
X164764438Y-94932571D01*
X164764438Y-94932571D02*
X164812057Y-94884952D01*
X164812057Y-94884952D02*
X164907295Y-94837333D01*
X164907295Y-94837333D02*
X165002533Y-94837333D01*
X165002533Y-94837333D02*
X165145390Y-94884952D01*
X165145390Y-94884952D02*
X165716819Y-95456380D01*
X165716819Y-95456380D02*
X165716819Y-94837333D01*
X179181009Y-97226190D02*
X179181009Y-97559523D01*
X179704819Y-97559523D02*
X178704819Y-97559523D01*
X178704819Y-97559523D02*
X178704819Y-97083333D01*
X179704819Y-96559523D02*
X179657200Y-96654761D01*
X179657200Y-96654761D02*
X179609580Y-96702380D01*
X179609580Y-96702380D02*
X179514342Y-96749999D01*
X179514342Y-96749999D02*
X179228628Y-96749999D01*
X179228628Y-96749999D02*
X179133390Y-96702380D01*
X179133390Y-96702380D02*
X179085771Y-96654761D01*
X179085771Y-96654761D02*
X179038152Y-96559523D01*
X179038152Y-96559523D02*
X179038152Y-96416666D01*
X179038152Y-96416666D02*
X179085771Y-96321428D01*
X179085771Y-96321428D02*
X179133390Y-96273809D01*
X179133390Y-96273809D02*
X179228628Y-96226190D01*
X179228628Y-96226190D02*
X179514342Y-96226190D01*
X179514342Y-96226190D02*
X179609580Y-96273809D01*
X179609580Y-96273809D02*
X179657200Y-96321428D01*
X179657200Y-96321428D02*
X179704819Y-96416666D01*
X179704819Y-96416666D02*
X179704819Y-96559523D01*
X179704819Y-95797618D02*
X179038152Y-95797618D01*
X179228628Y-95797618D02*
X179133390Y-95749999D01*
X179133390Y-95749999D02*
X179085771Y-95702380D01*
X179085771Y-95702380D02*
X179038152Y-95607142D01*
X179038152Y-95607142D02*
X179038152Y-95511904D01*
X179657200Y-94749999D02*
X179704819Y-94845237D01*
X179704819Y-94845237D02*
X179704819Y-95035713D01*
X179704819Y-95035713D02*
X179657200Y-95130951D01*
X179657200Y-95130951D02*
X179609580Y-95178570D01*
X179609580Y-95178570D02*
X179514342Y-95226189D01*
X179514342Y-95226189D02*
X179228628Y-95226189D01*
X179228628Y-95226189D02*
X179133390Y-95178570D01*
X179133390Y-95178570D02*
X179085771Y-95130951D01*
X179085771Y-95130951D02*
X179038152Y-95035713D01*
X179038152Y-95035713D02*
X179038152Y-94845237D01*
X179038152Y-94845237D02*
X179085771Y-94749999D01*
X179657200Y-93940475D02*
X179704819Y-94035713D01*
X179704819Y-94035713D02*
X179704819Y-94226189D01*
X179704819Y-94226189D02*
X179657200Y-94321427D01*
X179657200Y-94321427D02*
X179561961Y-94369046D01*
X179561961Y-94369046D02*
X179181009Y-94369046D01*
X179181009Y-94369046D02*
X179085771Y-94321427D01*
X179085771Y-94321427D02*
X179038152Y-94226189D01*
X179038152Y-94226189D02*
X179038152Y-94035713D01*
X179038152Y-94035713D02*
X179085771Y-93940475D01*
X179085771Y-93940475D02*
X179181009Y-93892856D01*
X179181009Y-93892856D02*
X179276247Y-93892856D01*
X179276247Y-93892856D02*
X179371485Y-94369046D01*
X158954819Y-77511904D02*
X159764342Y-77511904D01*
X159764342Y-77511904D02*
X159859580Y-77464285D01*
X159859580Y-77464285D02*
X159907200Y-77416666D01*
X159907200Y-77416666D02*
X159954819Y-77321428D01*
X159954819Y-77321428D02*
X159954819Y-77130952D01*
X159954819Y-77130952D02*
X159907200Y-77035714D01*
X159907200Y-77035714D02*
X159859580Y-76988095D01*
X159859580Y-76988095D02*
X159764342Y-76940476D01*
X159764342Y-76940476D02*
X158954819Y-76940476D01*
X159050057Y-76511904D02*
X159002438Y-76464285D01*
X159002438Y-76464285D02*
X158954819Y-76369047D01*
X158954819Y-76369047D02*
X158954819Y-76130952D01*
X158954819Y-76130952D02*
X159002438Y-76035714D01*
X159002438Y-76035714D02*
X159050057Y-75988095D01*
X159050057Y-75988095D02*
X159145295Y-75940476D01*
X159145295Y-75940476D02*
X159240533Y-75940476D01*
X159240533Y-75940476D02*
X159383390Y-75988095D01*
X159383390Y-75988095D02*
X159954819Y-76559523D01*
X159954819Y-76559523D02*
X159954819Y-75940476D01*
X179667819Y-74836237D02*
X178667819Y-74836237D01*
X178667819Y-74836237D02*
X178667819Y-74598142D01*
X178667819Y-74598142D02*
X178715438Y-74455285D01*
X178715438Y-74455285D02*
X178810676Y-74360047D01*
X178810676Y-74360047D02*
X178905914Y-74312428D01*
X178905914Y-74312428D02*
X179096390Y-74264809D01*
X179096390Y-74264809D02*
X179239247Y-74264809D01*
X179239247Y-74264809D02*
X179429723Y-74312428D01*
X179429723Y-74312428D02*
X179524961Y-74360047D01*
X179524961Y-74360047D02*
X179620200Y-74455285D01*
X179620200Y-74455285D02*
X179667819Y-74598142D01*
X179667819Y-74598142D02*
X179667819Y-74836237D01*
X179144009Y-73502904D02*
X179144009Y-73836237D01*
X179667819Y-73836237D02*
X178667819Y-73836237D01*
X178667819Y-73836237D02*
X178667819Y-73360047D01*
X179667819Y-72407666D02*
X179191628Y-72740999D01*
X179667819Y-72979094D02*
X178667819Y-72979094D01*
X178667819Y-72979094D02*
X178667819Y-72598142D01*
X178667819Y-72598142D02*
X178715438Y-72502904D01*
X178715438Y-72502904D02*
X178763057Y-72455285D01*
X178763057Y-72455285D02*
X178858295Y-72407666D01*
X178858295Y-72407666D02*
X179001152Y-72407666D01*
X179001152Y-72407666D02*
X179096390Y-72455285D01*
X179096390Y-72455285D02*
X179144009Y-72502904D01*
X179144009Y-72502904D02*
X179191628Y-72598142D01*
X179191628Y-72598142D02*
X179191628Y-72979094D01*
X178667819Y-71788618D02*
X178667819Y-71693380D01*
X178667819Y-71693380D02*
X178715438Y-71598142D01*
X178715438Y-71598142D02*
X178763057Y-71550523D01*
X178763057Y-71550523D02*
X178858295Y-71502904D01*
X178858295Y-71502904D02*
X179048771Y-71455285D01*
X179048771Y-71455285D02*
X179286866Y-71455285D01*
X179286866Y-71455285D02*
X179477342Y-71502904D01*
X179477342Y-71502904D02*
X179572580Y-71550523D01*
X179572580Y-71550523D02*
X179620200Y-71598142D01*
X179620200Y-71598142D02*
X179667819Y-71693380D01*
X179667819Y-71693380D02*
X179667819Y-71788618D01*
X179667819Y-71788618D02*
X179620200Y-71883856D01*
X179620200Y-71883856D02*
X179572580Y-71931475D01*
X179572580Y-71931475D02*
X179477342Y-71979094D01*
X179477342Y-71979094D02*
X179286866Y-72026713D01*
X179286866Y-72026713D02*
X179048771Y-72026713D01*
X179048771Y-72026713D02*
X178858295Y-71979094D01*
X178858295Y-71979094D02*
X178763057Y-71931475D01*
X178763057Y-71931475D02*
X178715438Y-71883856D01*
X178715438Y-71883856D02*
X178667819Y-71788618D01*
X178763057Y-71074332D02*
X178715438Y-71026713D01*
X178715438Y-71026713D02*
X178667819Y-70931475D01*
X178667819Y-70931475D02*
X178667819Y-70693380D01*
X178667819Y-70693380D02*
X178715438Y-70598142D01*
X178715438Y-70598142D02*
X178763057Y-70550523D01*
X178763057Y-70550523D02*
X178858295Y-70502904D01*
X178858295Y-70502904D02*
X178953533Y-70502904D01*
X178953533Y-70502904D02*
X179096390Y-70550523D01*
X179096390Y-70550523D02*
X179667819Y-71121951D01*
X179667819Y-71121951D02*
X179667819Y-70502904D01*
X179667819Y-70026713D02*
X179667819Y-69836237D01*
X179667819Y-69836237D02*
X179620200Y-69740999D01*
X179620200Y-69740999D02*
X179572580Y-69693380D01*
X179572580Y-69693380D02*
X179429723Y-69598142D01*
X179429723Y-69598142D02*
X179239247Y-69550523D01*
X179239247Y-69550523D02*
X178858295Y-69550523D01*
X178858295Y-69550523D02*
X178763057Y-69598142D01*
X178763057Y-69598142D02*
X178715438Y-69645761D01*
X178715438Y-69645761D02*
X178667819Y-69740999D01*
X178667819Y-69740999D02*
X178667819Y-69931475D01*
X178667819Y-69931475D02*
X178715438Y-70026713D01*
X178715438Y-70026713D02*
X178763057Y-70074332D01*
X178763057Y-70074332D02*
X178858295Y-70121951D01*
X178858295Y-70121951D02*
X179096390Y-70121951D01*
X179096390Y-70121951D02*
X179191628Y-70074332D01*
X179191628Y-70074332D02*
X179239247Y-70026713D01*
X179239247Y-70026713D02*
X179286866Y-69931475D01*
X179286866Y-69931475D02*
X179286866Y-69740999D01*
X179286866Y-69740999D02*
X179239247Y-69645761D01*
X179239247Y-69645761D02*
X179191628Y-69598142D01*
X179191628Y-69598142D02*
X179096390Y-69550523D01*
X179667819Y-69074332D02*
X179667819Y-68883856D01*
X179667819Y-68883856D02*
X179620200Y-68788618D01*
X179620200Y-68788618D02*
X179572580Y-68740999D01*
X179572580Y-68740999D02*
X179429723Y-68645761D01*
X179429723Y-68645761D02*
X179239247Y-68598142D01*
X179239247Y-68598142D02*
X178858295Y-68598142D01*
X178858295Y-68598142D02*
X178763057Y-68645761D01*
X178763057Y-68645761D02*
X178715438Y-68693380D01*
X178715438Y-68693380D02*
X178667819Y-68788618D01*
X178667819Y-68788618D02*
X178667819Y-68979094D01*
X178667819Y-68979094D02*
X178715438Y-69074332D01*
X178715438Y-69074332D02*
X178763057Y-69121951D01*
X178763057Y-69121951D02*
X178858295Y-69169570D01*
X178858295Y-69169570D02*
X179096390Y-69169570D01*
X179096390Y-69169570D02*
X179191628Y-69121951D01*
X179191628Y-69121951D02*
X179239247Y-69074332D01*
X179239247Y-69074332D02*
X179286866Y-68979094D01*
X179286866Y-68979094D02*
X179286866Y-68788618D01*
X179286866Y-68788618D02*
X179239247Y-68693380D01*
X179239247Y-68693380D02*
X179191628Y-68645761D01*
X179191628Y-68645761D02*
X179096390Y-68598142D01*
X151083333Y-68859580D02*
X151035714Y-68907200D01*
X151035714Y-68907200D02*
X150892857Y-68954819D01*
X150892857Y-68954819D02*
X150797619Y-68954819D01*
X150797619Y-68954819D02*
X150654762Y-68907200D01*
X150654762Y-68907200D02*
X150559524Y-68811961D01*
X150559524Y-68811961D02*
X150511905Y-68716723D01*
X150511905Y-68716723D02*
X150464286Y-68526247D01*
X150464286Y-68526247D02*
X150464286Y-68383390D01*
X150464286Y-68383390D02*
X150511905Y-68192914D01*
X150511905Y-68192914D02*
X150559524Y-68097676D01*
X150559524Y-68097676D02*
X150654762Y-68002438D01*
X150654762Y-68002438D02*
X150797619Y-67954819D01*
X150797619Y-67954819D02*
X150892857Y-67954819D01*
X150892857Y-67954819D02*
X151035714Y-68002438D01*
X151035714Y-68002438D02*
X151083333Y-68050057D01*
X151464286Y-68050057D02*
X151511905Y-68002438D01*
X151511905Y-68002438D02*
X151607143Y-67954819D01*
X151607143Y-67954819D02*
X151845238Y-67954819D01*
X151845238Y-67954819D02*
X151940476Y-68002438D01*
X151940476Y-68002438D02*
X151988095Y-68050057D01*
X151988095Y-68050057D02*
X152035714Y-68145295D01*
X152035714Y-68145295D02*
X152035714Y-68240533D01*
X152035714Y-68240533D02*
X151988095Y-68383390D01*
X151988095Y-68383390D02*
X151416667Y-68954819D01*
X151416667Y-68954819D02*
X152035714Y-68954819D01*
X154630952Y-69204819D02*
X154059524Y-69204819D01*
X154345238Y-69204819D02*
X154345238Y-68204819D01*
X154345238Y-68204819D02*
X154250000Y-68347676D01*
X154250000Y-68347676D02*
X154154762Y-68442914D01*
X154154762Y-68442914D02*
X154059524Y-68490533D01*
X155250000Y-68204819D02*
X155345238Y-68204819D01*
X155345238Y-68204819D02*
X155440476Y-68252438D01*
X155440476Y-68252438D02*
X155488095Y-68300057D01*
X155488095Y-68300057D02*
X155535714Y-68395295D01*
X155535714Y-68395295D02*
X155583333Y-68585771D01*
X155583333Y-68585771D02*
X155583333Y-68823866D01*
X155583333Y-68823866D02*
X155535714Y-69014342D01*
X155535714Y-69014342D02*
X155488095Y-69109580D01*
X155488095Y-69109580D02*
X155440476Y-69157200D01*
X155440476Y-69157200D02*
X155345238Y-69204819D01*
X155345238Y-69204819D02*
X155250000Y-69204819D01*
X155250000Y-69204819D02*
X155154762Y-69157200D01*
X155154762Y-69157200D02*
X155107143Y-69109580D01*
X155107143Y-69109580D02*
X155059524Y-69014342D01*
X155059524Y-69014342D02*
X155011905Y-68823866D01*
X155011905Y-68823866D02*
X155011905Y-68585771D01*
X155011905Y-68585771D02*
X155059524Y-68395295D01*
X155059524Y-68395295D02*
X155107143Y-68300057D01*
X155107143Y-68300057D02*
X155154762Y-68252438D01*
X155154762Y-68252438D02*
X155250000Y-68204819D01*
X156202381Y-68204819D02*
X156297619Y-68204819D01*
X156297619Y-68204819D02*
X156392857Y-68252438D01*
X156392857Y-68252438D02*
X156440476Y-68300057D01*
X156440476Y-68300057D02*
X156488095Y-68395295D01*
X156488095Y-68395295D02*
X156535714Y-68585771D01*
X156535714Y-68585771D02*
X156535714Y-68823866D01*
X156535714Y-68823866D02*
X156488095Y-69014342D01*
X156488095Y-69014342D02*
X156440476Y-69109580D01*
X156440476Y-69109580D02*
X156392857Y-69157200D01*
X156392857Y-69157200D02*
X156297619Y-69204819D01*
X156297619Y-69204819D02*
X156202381Y-69204819D01*
X156202381Y-69204819D02*
X156107143Y-69157200D01*
X156107143Y-69157200D02*
X156059524Y-69109580D01*
X156059524Y-69109580D02*
X156011905Y-69014342D01*
X156011905Y-69014342D02*
X155964286Y-68823866D01*
X155964286Y-68823866D02*
X155964286Y-68585771D01*
X155964286Y-68585771D02*
X156011905Y-68395295D01*
X156011905Y-68395295D02*
X156059524Y-68300057D01*
X156059524Y-68300057D02*
X156107143Y-68252438D01*
X156107143Y-68252438D02*
X156202381Y-68204819D01*
X157392857Y-68538152D02*
X157392857Y-69204819D01*
X156964286Y-68538152D02*
X156964286Y-69061961D01*
X156964286Y-69061961D02*
X157011905Y-69157200D01*
X157011905Y-69157200D02*
X157107143Y-69204819D01*
X157107143Y-69204819D02*
X157250000Y-69204819D01*
X157250000Y-69204819D02*
X157345238Y-69157200D01*
X157345238Y-69157200D02*
X157392857Y-69109580D01*
X157552819Y-96178666D02*
X157076628Y-96511999D01*
X157552819Y-96750094D02*
X156552819Y-96750094D01*
X156552819Y-96750094D02*
X156552819Y-96369142D01*
X156552819Y-96369142D02*
X156600438Y-96273904D01*
X156600438Y-96273904D02*
X156648057Y-96226285D01*
X156648057Y-96226285D02*
X156743295Y-96178666D01*
X156743295Y-96178666D02*
X156886152Y-96178666D01*
X156886152Y-96178666D02*
X156981390Y-96226285D01*
X156981390Y-96226285D02*
X157029009Y-96273904D01*
X157029009Y-96273904D02*
X157076628Y-96369142D01*
X157076628Y-96369142D02*
X157076628Y-96750094D01*
X157552819Y-95226285D02*
X157552819Y-95797713D01*
X157552819Y-95511999D02*
X156552819Y-95511999D01*
X156552819Y-95511999D02*
X156695676Y-95607237D01*
X156695676Y-95607237D02*
X156790914Y-95702475D01*
X156790914Y-95702475D02*
X156838533Y-95797713D01*
X154204819Y-96595238D02*
X154204819Y-97166666D01*
X154204819Y-96880952D02*
X153204819Y-96880952D01*
X153204819Y-96880952D02*
X153347676Y-96976190D01*
X153347676Y-96976190D02*
X153442914Y-97071428D01*
X153442914Y-97071428D02*
X153490533Y-97166666D01*
X153204819Y-95976190D02*
X153204819Y-95880952D01*
X153204819Y-95880952D02*
X153252438Y-95785714D01*
X153252438Y-95785714D02*
X153300057Y-95738095D01*
X153300057Y-95738095D02*
X153395295Y-95690476D01*
X153395295Y-95690476D02*
X153585771Y-95642857D01*
X153585771Y-95642857D02*
X153823866Y-95642857D01*
X153823866Y-95642857D02*
X154014342Y-95690476D01*
X154014342Y-95690476D02*
X154109580Y-95738095D01*
X154109580Y-95738095D02*
X154157200Y-95785714D01*
X154157200Y-95785714D02*
X154204819Y-95880952D01*
X154204819Y-95880952D02*
X154204819Y-95976190D01*
X154204819Y-95976190D02*
X154157200Y-96071428D01*
X154157200Y-96071428D02*
X154109580Y-96119047D01*
X154109580Y-96119047D02*
X154014342Y-96166666D01*
X154014342Y-96166666D02*
X153823866Y-96214285D01*
X153823866Y-96214285D02*
X153585771Y-96214285D01*
X153585771Y-96214285D02*
X153395295Y-96166666D01*
X153395295Y-96166666D02*
X153300057Y-96119047D01*
X153300057Y-96119047D02*
X153252438Y-96071428D01*
X153252438Y-96071428D02*
X153204819Y-95976190D01*
X154204819Y-95214285D02*
X153204819Y-95214285D01*
X153823866Y-95119047D02*
X154204819Y-94833333D01*
X153538152Y-94833333D02*
X153919104Y-95214285D01*
X170404761Y-112300057D02*
X170309523Y-112252438D01*
X170309523Y-112252438D02*
X170214285Y-112157200D01*
X170214285Y-112157200D02*
X170071428Y-112014342D01*
X170071428Y-112014342D02*
X169976190Y-111966723D01*
X169976190Y-111966723D02*
X169880952Y-111966723D01*
X169928571Y-112204819D02*
X169833333Y-112157200D01*
X169833333Y-112157200D02*
X169738095Y-112061961D01*
X169738095Y-112061961D02*
X169690476Y-111871485D01*
X169690476Y-111871485D02*
X169690476Y-111538152D01*
X169690476Y-111538152D02*
X169738095Y-111347676D01*
X169738095Y-111347676D02*
X169833333Y-111252438D01*
X169833333Y-111252438D02*
X169928571Y-111204819D01*
X169928571Y-111204819D02*
X170119047Y-111204819D01*
X170119047Y-111204819D02*
X170214285Y-111252438D01*
X170214285Y-111252438D02*
X170309523Y-111347676D01*
X170309523Y-111347676D02*
X170357142Y-111538152D01*
X170357142Y-111538152D02*
X170357142Y-111871485D01*
X170357142Y-111871485D02*
X170309523Y-112061961D01*
X170309523Y-112061961D02*
X170214285Y-112157200D01*
X170214285Y-112157200D02*
X170119047Y-112204819D01*
X170119047Y-112204819D02*
X169928571Y-112204819D01*
X171309523Y-112204819D02*
X170738095Y-112204819D01*
X171023809Y-112204819D02*
X171023809Y-111204819D01*
X171023809Y-111204819D02*
X170928571Y-111347676D01*
X170928571Y-111347676D02*
X170833333Y-111442914D01*
X170833333Y-111442914D02*
X170738095Y-111490533D01*
X169642857Y-113181009D02*
X169785714Y-113228628D01*
X169785714Y-113228628D02*
X169833333Y-113276247D01*
X169833333Y-113276247D02*
X169880952Y-113371485D01*
X169880952Y-113371485D02*
X169880952Y-113514342D01*
X169880952Y-113514342D02*
X169833333Y-113609580D01*
X169833333Y-113609580D02*
X169785714Y-113657200D01*
X169785714Y-113657200D02*
X169690476Y-113704819D01*
X169690476Y-113704819D02*
X169309524Y-113704819D01*
X169309524Y-113704819D02*
X169309524Y-112704819D01*
X169309524Y-112704819D02*
X169642857Y-112704819D01*
X169642857Y-112704819D02*
X169738095Y-112752438D01*
X169738095Y-112752438D02*
X169785714Y-112800057D01*
X169785714Y-112800057D02*
X169833333Y-112895295D01*
X169833333Y-112895295D02*
X169833333Y-112990533D01*
X169833333Y-112990533D02*
X169785714Y-113085771D01*
X169785714Y-113085771D02*
X169738095Y-113133390D01*
X169738095Y-113133390D02*
X169642857Y-113181009D01*
X169642857Y-113181009D02*
X169309524Y-113181009D01*
X170880952Y-113609580D02*
X170833333Y-113657200D01*
X170833333Y-113657200D02*
X170690476Y-113704819D01*
X170690476Y-113704819D02*
X170595238Y-113704819D01*
X170595238Y-113704819D02*
X170452381Y-113657200D01*
X170452381Y-113657200D02*
X170357143Y-113561961D01*
X170357143Y-113561961D02*
X170309524Y-113466723D01*
X170309524Y-113466723D02*
X170261905Y-113276247D01*
X170261905Y-113276247D02*
X170261905Y-113133390D01*
X170261905Y-113133390D02*
X170309524Y-112942914D01*
X170309524Y-112942914D02*
X170357143Y-112847676D01*
X170357143Y-112847676D02*
X170452381Y-112752438D01*
X170452381Y-112752438D02*
X170595238Y-112704819D01*
X170595238Y-112704819D02*
X170690476Y-112704819D01*
X170690476Y-112704819D02*
X170833333Y-112752438D01*
X170833333Y-112752438D02*
X170880952Y-112800057D01*
X171214286Y-112704819D02*
X171833333Y-112704819D01*
X171833333Y-112704819D02*
X171500000Y-113085771D01*
X171500000Y-113085771D02*
X171642857Y-113085771D01*
X171642857Y-113085771D02*
X171738095Y-113133390D01*
X171738095Y-113133390D02*
X171785714Y-113181009D01*
X171785714Y-113181009D02*
X171833333Y-113276247D01*
X171833333Y-113276247D02*
X171833333Y-113514342D01*
X171833333Y-113514342D02*
X171785714Y-113609580D01*
X171785714Y-113609580D02*
X171738095Y-113657200D01*
X171738095Y-113657200D02*
X171642857Y-113704819D01*
X171642857Y-113704819D02*
X171357143Y-113704819D01*
X171357143Y-113704819D02*
X171261905Y-113657200D01*
X171261905Y-113657200D02*
X171214286Y-113609580D01*
X172166667Y-112704819D02*
X172785714Y-112704819D01*
X172785714Y-112704819D02*
X172452381Y-113085771D01*
X172452381Y-113085771D02*
X172595238Y-113085771D01*
X172595238Y-113085771D02*
X172690476Y-113133390D01*
X172690476Y-113133390D02*
X172738095Y-113181009D01*
X172738095Y-113181009D02*
X172785714Y-113276247D01*
X172785714Y-113276247D02*
X172785714Y-113514342D01*
X172785714Y-113514342D02*
X172738095Y-113609580D01*
X172738095Y-113609580D02*
X172690476Y-113657200D01*
X172690476Y-113657200D02*
X172595238Y-113704819D01*
X172595238Y-113704819D02*
X172309524Y-113704819D01*
X172309524Y-113704819D02*
X172214286Y-113657200D01*
X172214286Y-113657200D02*
X172166667Y-113609580D01*
X173119048Y-112704819D02*
X173785714Y-112704819D01*
X173785714Y-112704819D02*
X173357143Y-113704819D01*
X111814819Y-69713333D02*
X112529104Y-69713333D01*
X112529104Y-69713333D02*
X112671961Y-69760952D01*
X112671961Y-69760952D02*
X112767200Y-69856190D01*
X112767200Y-69856190D02*
X112814819Y-69999047D01*
X112814819Y-69999047D02*
X112814819Y-70094285D01*
X111814819Y-68808571D02*
X111814819Y-68999047D01*
X111814819Y-68999047D02*
X111862438Y-69094285D01*
X111862438Y-69094285D02*
X111910057Y-69141904D01*
X111910057Y-69141904D02*
X112052914Y-69237142D01*
X112052914Y-69237142D02*
X112243390Y-69284761D01*
X112243390Y-69284761D02*
X112624342Y-69284761D01*
X112624342Y-69284761D02*
X112719580Y-69237142D01*
X112719580Y-69237142D02*
X112767200Y-69189523D01*
X112767200Y-69189523D02*
X112814819Y-69094285D01*
X112814819Y-69094285D02*
X112814819Y-68903809D01*
X112814819Y-68903809D02*
X112767200Y-68808571D01*
X112767200Y-68808571D02*
X112719580Y-68760952D01*
X112719580Y-68760952D02*
X112624342Y-68713333D01*
X112624342Y-68713333D02*
X112386247Y-68713333D01*
X112386247Y-68713333D02*
X112291009Y-68760952D01*
X112291009Y-68760952D02*
X112243390Y-68808571D01*
X112243390Y-68808571D02*
X112195771Y-68903809D01*
X112195771Y-68903809D02*
X112195771Y-69094285D01*
X112195771Y-69094285D02*
X112243390Y-69189523D01*
X112243390Y-69189523D02*
X112291009Y-69237142D01*
X112291009Y-69237142D02*
X112386247Y-69284761D01*
X112142856Y-76681009D02*
X112285713Y-76728628D01*
X112285713Y-76728628D02*
X112333332Y-76776247D01*
X112333332Y-76776247D02*
X112380951Y-76871485D01*
X112380951Y-76871485D02*
X112380951Y-77014342D01*
X112380951Y-77014342D02*
X112333332Y-77109580D01*
X112333332Y-77109580D02*
X112285713Y-77157200D01*
X112285713Y-77157200D02*
X112190475Y-77204819D01*
X112190475Y-77204819D02*
X111809523Y-77204819D01*
X111809523Y-77204819D02*
X111809523Y-76204819D01*
X111809523Y-76204819D02*
X112142856Y-76204819D01*
X112142856Y-76204819D02*
X112238094Y-76252438D01*
X112238094Y-76252438D02*
X112285713Y-76300057D01*
X112285713Y-76300057D02*
X112333332Y-76395295D01*
X112333332Y-76395295D02*
X112333332Y-76490533D01*
X112333332Y-76490533D02*
X112285713Y-76585771D01*
X112285713Y-76585771D02*
X112238094Y-76633390D01*
X112238094Y-76633390D02*
X112142856Y-76681009D01*
X112142856Y-76681009D02*
X111809523Y-76681009D01*
X112952380Y-77204819D02*
X112857142Y-77157200D01*
X112857142Y-77157200D02*
X112809523Y-77061961D01*
X112809523Y-77061961D02*
X112809523Y-76204819D01*
X113761904Y-76538152D02*
X113761904Y-77204819D01*
X113333333Y-76538152D02*
X113333333Y-77061961D01*
X113333333Y-77061961D02*
X113380952Y-77157200D01*
X113380952Y-77157200D02*
X113476190Y-77204819D01*
X113476190Y-77204819D02*
X113619047Y-77204819D01*
X113619047Y-77204819D02*
X113714285Y-77157200D01*
X113714285Y-77157200D02*
X113761904Y-77109580D01*
X114619047Y-77157200D02*
X114523809Y-77204819D01*
X114523809Y-77204819D02*
X114333333Y-77204819D01*
X114333333Y-77204819D02*
X114238095Y-77157200D01*
X114238095Y-77157200D02*
X114190476Y-77061961D01*
X114190476Y-77061961D02*
X114190476Y-76681009D01*
X114190476Y-76681009D02*
X114238095Y-76585771D01*
X114238095Y-76585771D02*
X114333333Y-76538152D01*
X114333333Y-76538152D02*
X114523809Y-76538152D01*
X114523809Y-76538152D02*
X114619047Y-76585771D01*
X114619047Y-76585771D02*
X114666666Y-76681009D01*
X114666666Y-76681009D02*
X114666666Y-76776247D01*
X114666666Y-76776247D02*
X114190476Y-76871485D01*
X114952381Y-76538152D02*
X115333333Y-76538152D01*
X115095238Y-76204819D02*
X115095238Y-77061961D01*
X115095238Y-77061961D02*
X115142857Y-77157200D01*
X115142857Y-77157200D02*
X115238095Y-77204819D01*
X115238095Y-77204819D02*
X115333333Y-77204819D01*
X115809524Y-77204819D02*
X115714286Y-77157200D01*
X115714286Y-77157200D02*
X115666667Y-77109580D01*
X115666667Y-77109580D02*
X115619048Y-77014342D01*
X115619048Y-77014342D02*
X115619048Y-76728628D01*
X115619048Y-76728628D02*
X115666667Y-76633390D01*
X115666667Y-76633390D02*
X115714286Y-76585771D01*
X115714286Y-76585771D02*
X115809524Y-76538152D01*
X115809524Y-76538152D02*
X115952381Y-76538152D01*
X115952381Y-76538152D02*
X116047619Y-76585771D01*
X116047619Y-76585771D02*
X116095238Y-76633390D01*
X116095238Y-76633390D02*
X116142857Y-76728628D01*
X116142857Y-76728628D02*
X116142857Y-77014342D01*
X116142857Y-77014342D02*
X116095238Y-77109580D01*
X116095238Y-77109580D02*
X116047619Y-77157200D01*
X116047619Y-77157200D02*
X115952381Y-77204819D01*
X115952381Y-77204819D02*
X115809524Y-77204819D01*
X116714286Y-77204819D02*
X116619048Y-77157200D01*
X116619048Y-77157200D02*
X116571429Y-77109580D01*
X116571429Y-77109580D02*
X116523810Y-77014342D01*
X116523810Y-77014342D02*
X116523810Y-76728628D01*
X116523810Y-76728628D02*
X116571429Y-76633390D01*
X116571429Y-76633390D02*
X116619048Y-76585771D01*
X116619048Y-76585771D02*
X116714286Y-76538152D01*
X116714286Y-76538152D02*
X116857143Y-76538152D01*
X116857143Y-76538152D02*
X116952381Y-76585771D01*
X116952381Y-76585771D02*
X117000000Y-76633390D01*
X117000000Y-76633390D02*
X117047619Y-76728628D01*
X117047619Y-76728628D02*
X117047619Y-77014342D01*
X117047619Y-77014342D02*
X117000000Y-77109580D01*
X117000000Y-77109580D02*
X116952381Y-77157200D01*
X116952381Y-77157200D02*
X116857143Y-77204819D01*
X116857143Y-77204819D02*
X116714286Y-77204819D01*
X117333334Y-76538152D02*
X117714286Y-76538152D01*
X117476191Y-76204819D02*
X117476191Y-77061961D01*
X117476191Y-77061961D02*
X117523810Y-77157200D01*
X117523810Y-77157200D02*
X117619048Y-77204819D01*
X117619048Y-77204819D02*
X117714286Y-77204819D01*
X118047620Y-77204819D02*
X118047620Y-76204819D01*
X118476191Y-77204819D02*
X118476191Y-76681009D01*
X118476191Y-76681009D02*
X118428572Y-76585771D01*
X118428572Y-76585771D02*
X118333334Y-76538152D01*
X118333334Y-76538152D02*
X118190477Y-76538152D01*
X118190477Y-76538152D02*
X118095239Y-76585771D01*
X118095239Y-76585771D02*
X118047620Y-76633390D01*
X119714287Y-76823866D02*
X120476192Y-76823866D01*
X121714287Y-77204819D02*
X121714287Y-76204819D01*
X121714287Y-76681009D02*
X122285715Y-76681009D01*
X122285715Y-77204819D02*
X122285715Y-76204819D01*
X123333334Y-77109580D02*
X123285715Y-77157200D01*
X123285715Y-77157200D02*
X123142858Y-77204819D01*
X123142858Y-77204819D02*
X123047620Y-77204819D01*
X123047620Y-77204819D02*
X122904763Y-77157200D01*
X122904763Y-77157200D02*
X122809525Y-77061961D01*
X122809525Y-77061961D02*
X122761906Y-76966723D01*
X122761906Y-76966723D02*
X122714287Y-76776247D01*
X122714287Y-76776247D02*
X122714287Y-76633390D01*
X122714287Y-76633390D02*
X122761906Y-76442914D01*
X122761906Y-76442914D02*
X122809525Y-76347676D01*
X122809525Y-76347676D02*
X122904763Y-76252438D01*
X122904763Y-76252438D02*
X123047620Y-76204819D01*
X123047620Y-76204819D02*
X123142858Y-76204819D01*
X123142858Y-76204819D02*
X123285715Y-76252438D01*
X123285715Y-76252438D02*
X123333334Y-76300057D01*
X123952382Y-76204819D02*
X124047620Y-76204819D01*
X124047620Y-76204819D02*
X124142858Y-76252438D01*
X124142858Y-76252438D02*
X124190477Y-76300057D01*
X124190477Y-76300057D02*
X124238096Y-76395295D01*
X124238096Y-76395295D02*
X124285715Y-76585771D01*
X124285715Y-76585771D02*
X124285715Y-76823866D01*
X124285715Y-76823866D02*
X124238096Y-77014342D01*
X124238096Y-77014342D02*
X124190477Y-77109580D01*
X124190477Y-77109580D02*
X124142858Y-77157200D01*
X124142858Y-77157200D02*
X124047620Y-77204819D01*
X124047620Y-77204819D02*
X123952382Y-77204819D01*
X123952382Y-77204819D02*
X123857144Y-77157200D01*
X123857144Y-77157200D02*
X123809525Y-77109580D01*
X123809525Y-77109580D02*
X123761906Y-77014342D01*
X123761906Y-77014342D02*
X123714287Y-76823866D01*
X123714287Y-76823866D02*
X123714287Y-76585771D01*
X123714287Y-76585771D02*
X123761906Y-76395295D01*
X123761906Y-76395295D02*
X123809525Y-76300057D01*
X123809525Y-76300057D02*
X123857144Y-76252438D01*
X123857144Y-76252438D02*
X123952382Y-76204819D01*
X125190477Y-76204819D02*
X124714287Y-76204819D01*
X124714287Y-76204819D02*
X124666668Y-76681009D01*
X124666668Y-76681009D02*
X124714287Y-76633390D01*
X124714287Y-76633390D02*
X124809525Y-76585771D01*
X124809525Y-76585771D02*
X125047620Y-76585771D01*
X125047620Y-76585771D02*
X125142858Y-76633390D01*
X125142858Y-76633390D02*
X125190477Y-76681009D01*
X125190477Y-76681009D02*
X125238096Y-76776247D01*
X125238096Y-76776247D02*
X125238096Y-77014342D01*
X125238096Y-77014342D02*
X125190477Y-77109580D01*
X125190477Y-77109580D02*
X125142858Y-77157200D01*
X125142858Y-77157200D02*
X125047620Y-77204819D01*
X125047620Y-77204819D02*
X124809525Y-77204819D01*
X124809525Y-77204819D02*
X124714287Y-77157200D01*
X124714287Y-77157200D02*
X124666668Y-77109580D01*
X126380953Y-76157200D02*
X125523811Y-77442914D01*
X126714287Y-77204819D02*
X126714287Y-76204819D01*
X126714287Y-76681009D02*
X127285715Y-76681009D01*
X127285715Y-77204819D02*
X127285715Y-76204819D01*
X128333334Y-77109580D02*
X128285715Y-77157200D01*
X128285715Y-77157200D02*
X128142858Y-77204819D01*
X128142858Y-77204819D02*
X128047620Y-77204819D01*
X128047620Y-77204819D02*
X127904763Y-77157200D01*
X127904763Y-77157200D02*
X127809525Y-77061961D01*
X127809525Y-77061961D02*
X127761906Y-76966723D01*
X127761906Y-76966723D02*
X127714287Y-76776247D01*
X127714287Y-76776247D02*
X127714287Y-76633390D01*
X127714287Y-76633390D02*
X127761906Y-76442914D01*
X127761906Y-76442914D02*
X127809525Y-76347676D01*
X127809525Y-76347676D02*
X127904763Y-76252438D01*
X127904763Y-76252438D02*
X128047620Y-76204819D01*
X128047620Y-76204819D02*
X128142858Y-76204819D01*
X128142858Y-76204819D02*
X128285715Y-76252438D01*
X128285715Y-76252438D02*
X128333334Y-76300057D01*
X128952382Y-76204819D02*
X129047620Y-76204819D01*
X129047620Y-76204819D02*
X129142858Y-76252438D01*
X129142858Y-76252438D02*
X129190477Y-76300057D01*
X129190477Y-76300057D02*
X129238096Y-76395295D01*
X129238096Y-76395295D02*
X129285715Y-76585771D01*
X129285715Y-76585771D02*
X129285715Y-76823866D01*
X129285715Y-76823866D02*
X129238096Y-77014342D01*
X129238096Y-77014342D02*
X129190477Y-77109580D01*
X129190477Y-77109580D02*
X129142858Y-77157200D01*
X129142858Y-77157200D02*
X129047620Y-77204819D01*
X129047620Y-77204819D02*
X128952382Y-77204819D01*
X128952382Y-77204819D02*
X128857144Y-77157200D01*
X128857144Y-77157200D02*
X128809525Y-77109580D01*
X128809525Y-77109580D02*
X128761906Y-77014342D01*
X128761906Y-77014342D02*
X128714287Y-76823866D01*
X128714287Y-76823866D02*
X128714287Y-76585771D01*
X128714287Y-76585771D02*
X128761906Y-76395295D01*
X128761906Y-76395295D02*
X128809525Y-76300057D01*
X128809525Y-76300057D02*
X128857144Y-76252438D01*
X128857144Y-76252438D02*
X128952382Y-76204819D01*
X130142858Y-76204819D02*
X129952382Y-76204819D01*
X129952382Y-76204819D02*
X129857144Y-76252438D01*
X129857144Y-76252438D02*
X129809525Y-76300057D01*
X129809525Y-76300057D02*
X129714287Y-76442914D01*
X129714287Y-76442914D02*
X129666668Y-76633390D01*
X129666668Y-76633390D02*
X129666668Y-77014342D01*
X129666668Y-77014342D02*
X129714287Y-77109580D01*
X129714287Y-77109580D02*
X129761906Y-77157200D01*
X129761906Y-77157200D02*
X129857144Y-77204819D01*
X129857144Y-77204819D02*
X130047620Y-77204819D01*
X130047620Y-77204819D02*
X130142858Y-77157200D01*
X130142858Y-77157200D02*
X130190477Y-77109580D01*
X130190477Y-77109580D02*
X130238096Y-77014342D01*
X130238096Y-77014342D02*
X130238096Y-76776247D01*
X130238096Y-76776247D02*
X130190477Y-76681009D01*
X130190477Y-76681009D02*
X130142858Y-76633390D01*
X130142858Y-76633390D02*
X130047620Y-76585771D01*
X130047620Y-76585771D02*
X129857144Y-76585771D01*
X129857144Y-76585771D02*
X129761906Y-76633390D01*
X129761906Y-76633390D02*
X129714287Y-76681009D01*
X129714287Y-76681009D02*
X129666668Y-76776247D01*
X164716819Y-86693333D02*
X165431104Y-86693333D01*
X165431104Y-86693333D02*
X165573961Y-86740952D01*
X165573961Y-86740952D02*
X165669200Y-86836190D01*
X165669200Y-86836190D02*
X165716819Y-86979047D01*
X165716819Y-86979047D02*
X165716819Y-87074285D01*
X165716819Y-85693333D02*
X165716819Y-86264761D01*
X165716819Y-85979047D02*
X164716819Y-85979047D01*
X164716819Y-85979047D02*
X164859676Y-86074285D01*
X164859676Y-86074285D02*
X164954914Y-86169523D01*
X164954914Y-86169523D02*
X165002533Y-86264761D01*
X179704819Y-87535713D02*
X178704819Y-87535713D01*
X179181009Y-87535713D02*
X179181009Y-86964285D01*
X179704819Y-86964285D02*
X178704819Y-86964285D01*
X179704819Y-86488094D02*
X178704819Y-86488094D01*
X178704819Y-86488094D02*
X178704819Y-86107142D01*
X178704819Y-86107142D02*
X178752438Y-86011904D01*
X178752438Y-86011904D02*
X178800057Y-85964285D01*
X178800057Y-85964285D02*
X178895295Y-85916666D01*
X178895295Y-85916666D02*
X179038152Y-85916666D01*
X179038152Y-85916666D02*
X179133390Y-85964285D01*
X179133390Y-85964285D02*
X179181009Y-86011904D01*
X179181009Y-86011904D02*
X179228628Y-86107142D01*
X179228628Y-86107142D02*
X179228628Y-86488094D01*
X158333333Y-89354819D02*
X158000000Y-88878628D01*
X157761905Y-89354819D02*
X157761905Y-88354819D01*
X157761905Y-88354819D02*
X158142857Y-88354819D01*
X158142857Y-88354819D02*
X158238095Y-88402438D01*
X158238095Y-88402438D02*
X158285714Y-88450057D01*
X158285714Y-88450057D02*
X158333333Y-88545295D01*
X158333333Y-88545295D02*
X158333333Y-88688152D01*
X158333333Y-88688152D02*
X158285714Y-88783390D01*
X158285714Y-88783390D02*
X158238095Y-88831009D01*
X158238095Y-88831009D02*
X158142857Y-88878628D01*
X158142857Y-88878628D02*
X157761905Y-88878628D01*
X158714286Y-88450057D02*
X158761905Y-88402438D01*
X158761905Y-88402438D02*
X158857143Y-88354819D01*
X158857143Y-88354819D02*
X159095238Y-88354819D01*
X159095238Y-88354819D02*
X159190476Y-88402438D01*
X159190476Y-88402438D02*
X159238095Y-88450057D01*
X159238095Y-88450057D02*
X159285714Y-88545295D01*
X159285714Y-88545295D02*
X159285714Y-88640533D01*
X159285714Y-88640533D02*
X159238095Y-88783390D01*
X159238095Y-88783390D02*
X158666667Y-89354819D01*
X158666667Y-89354819D02*
X159285714Y-89354819D01*
X158380952Y-85704819D02*
X157809524Y-85704819D01*
X158095238Y-85704819D02*
X158095238Y-84704819D01*
X158095238Y-84704819D02*
X158000000Y-84847676D01*
X158000000Y-84847676D02*
X157904762Y-84942914D01*
X157904762Y-84942914D02*
X157809524Y-84990533D01*
X158809524Y-85704819D02*
X158809524Y-84704819D01*
X158904762Y-85323866D02*
X159190476Y-85704819D01*
X159190476Y-85038152D02*
X158809524Y-85419104D01*
X160107333Y-115134819D02*
X159774000Y-114658628D01*
X159535905Y-115134819D02*
X159535905Y-114134819D01*
X159535905Y-114134819D02*
X159916857Y-114134819D01*
X159916857Y-114134819D02*
X160012095Y-114182438D01*
X160012095Y-114182438D02*
X160059714Y-114230057D01*
X160059714Y-114230057D02*
X160107333Y-114325295D01*
X160107333Y-114325295D02*
X160107333Y-114468152D01*
X160107333Y-114468152D02*
X160059714Y-114563390D01*
X160059714Y-114563390D02*
X160012095Y-114611009D01*
X160012095Y-114611009D02*
X159916857Y-114658628D01*
X159916857Y-114658628D02*
X159535905Y-114658628D01*
X160440667Y-114134819D02*
X161059714Y-114134819D01*
X161059714Y-114134819D02*
X160726381Y-114515771D01*
X160726381Y-114515771D02*
X160869238Y-114515771D01*
X160869238Y-114515771D02*
X160964476Y-114563390D01*
X160964476Y-114563390D02*
X161012095Y-114611009D01*
X161012095Y-114611009D02*
X161059714Y-114706247D01*
X161059714Y-114706247D02*
X161059714Y-114944342D01*
X161059714Y-114944342D02*
X161012095Y-115039580D01*
X161012095Y-115039580D02*
X160964476Y-115087200D01*
X160964476Y-115087200D02*
X160869238Y-115134819D01*
X160869238Y-115134819D02*
X160583524Y-115134819D01*
X160583524Y-115134819D02*
X160488286Y-115087200D01*
X160488286Y-115087200D02*
X160440667Y-115039580D01*
X160154952Y-111834819D02*
X159583524Y-111834819D01*
X159869238Y-111834819D02*
X159869238Y-110834819D01*
X159869238Y-110834819D02*
X159774000Y-110977676D01*
X159774000Y-110977676D02*
X159678762Y-111072914D01*
X159678762Y-111072914D02*
X159583524Y-111120533D01*
X160583524Y-111834819D02*
X160583524Y-110834819D01*
X160678762Y-111453866D02*
X160964476Y-111834819D01*
X160964476Y-111168152D02*
X160583524Y-111549104D01*
X161110819Y-108688094D02*
X160110819Y-108688094D01*
X160110819Y-108688094D02*
X160110819Y-108449999D01*
X160110819Y-108449999D02*
X160158438Y-108307142D01*
X160158438Y-108307142D02*
X160253676Y-108211904D01*
X160253676Y-108211904D02*
X160348914Y-108164285D01*
X160348914Y-108164285D02*
X160539390Y-108116666D01*
X160539390Y-108116666D02*
X160682247Y-108116666D01*
X160682247Y-108116666D02*
X160872723Y-108164285D01*
X160872723Y-108164285D02*
X160967961Y-108211904D01*
X160967961Y-108211904D02*
X161063200Y-108307142D01*
X161063200Y-108307142D02*
X161110819Y-108449999D01*
X161110819Y-108449999D02*
X161110819Y-108688094D01*
X161110819Y-107164285D02*
X161110819Y-107735713D01*
X161110819Y-107449999D02*
X160110819Y-107449999D01*
X160110819Y-107449999D02*
X160253676Y-107545237D01*
X160253676Y-107545237D02*
X160348914Y-107640475D01*
X160348914Y-107640475D02*
X160396533Y-107735713D01*
X159704819Y-109892857D02*
X159704819Y-110464285D01*
X159704819Y-110178571D02*
X158704819Y-110178571D01*
X158704819Y-110178571D02*
X158847676Y-110273809D01*
X158847676Y-110273809D02*
X158942914Y-110369047D01*
X158942914Y-110369047D02*
X158990533Y-110464285D01*
X159704819Y-109464285D02*
X158704819Y-109464285D01*
X158704819Y-109464285D02*
X159704819Y-108892857D01*
X159704819Y-108892857D02*
X158704819Y-108892857D01*
X159038152Y-107988095D02*
X159704819Y-107988095D01*
X158657200Y-108226190D02*
X159371485Y-108464285D01*
X159371485Y-108464285D02*
X159371485Y-107845238D01*
X159704819Y-106940476D02*
X159704819Y-107511904D01*
X159704819Y-107226190D02*
X158704819Y-107226190D01*
X158704819Y-107226190D02*
X158847676Y-107321428D01*
X158847676Y-107321428D02*
X158942914Y-107416666D01*
X158942914Y-107416666D02*
X158990533Y-107511904D01*
X159038152Y-106083333D02*
X159704819Y-106083333D01*
X158657200Y-106321428D02*
X159371485Y-106559523D01*
X159371485Y-106559523D02*
X159371485Y-105940476D01*
X159133390Y-105416666D02*
X159085771Y-105511904D01*
X159085771Y-105511904D02*
X159038152Y-105559523D01*
X159038152Y-105559523D02*
X158942914Y-105607142D01*
X158942914Y-105607142D02*
X158895295Y-105607142D01*
X158895295Y-105607142D02*
X158800057Y-105559523D01*
X158800057Y-105559523D02*
X158752438Y-105511904D01*
X158752438Y-105511904D02*
X158704819Y-105416666D01*
X158704819Y-105416666D02*
X158704819Y-105226190D01*
X158704819Y-105226190D02*
X158752438Y-105130952D01*
X158752438Y-105130952D02*
X158800057Y-105083333D01*
X158800057Y-105083333D02*
X158895295Y-105035714D01*
X158895295Y-105035714D02*
X158942914Y-105035714D01*
X158942914Y-105035714D02*
X159038152Y-105083333D01*
X159038152Y-105083333D02*
X159085771Y-105130952D01*
X159085771Y-105130952D02*
X159133390Y-105226190D01*
X159133390Y-105226190D02*
X159133390Y-105416666D01*
X159133390Y-105416666D02*
X159181009Y-105511904D01*
X159181009Y-105511904D02*
X159228628Y-105559523D01*
X159228628Y-105559523D02*
X159323866Y-105607142D01*
X159323866Y-105607142D02*
X159514342Y-105607142D01*
X159514342Y-105607142D02*
X159609580Y-105559523D01*
X159609580Y-105559523D02*
X159657200Y-105511904D01*
X159657200Y-105511904D02*
X159704819Y-105416666D01*
X159704819Y-105416666D02*
X159704819Y-105226190D01*
X159704819Y-105226190D02*
X159657200Y-105130952D01*
X159657200Y-105130952D02*
X159609580Y-105083333D01*
X159609580Y-105083333D02*
X159514342Y-105035714D01*
X159514342Y-105035714D02*
X159323866Y-105035714D01*
X159323866Y-105035714D02*
X159228628Y-105083333D01*
X159228628Y-105083333D02*
X159181009Y-105130952D01*
X159181009Y-105130952D02*
X159133390Y-105226190D01*
X153870833Y-81289580D02*
X153823214Y-81337200D01*
X153823214Y-81337200D02*
X153680357Y-81384819D01*
X153680357Y-81384819D02*
X153585119Y-81384819D01*
X153585119Y-81384819D02*
X153442262Y-81337200D01*
X153442262Y-81337200D02*
X153347024Y-81241961D01*
X153347024Y-81241961D02*
X153299405Y-81146723D01*
X153299405Y-81146723D02*
X153251786Y-80956247D01*
X153251786Y-80956247D02*
X153251786Y-80813390D01*
X153251786Y-80813390D02*
X153299405Y-80622914D01*
X153299405Y-80622914D02*
X153347024Y-80527676D01*
X153347024Y-80527676D02*
X153442262Y-80432438D01*
X153442262Y-80432438D02*
X153585119Y-80384819D01*
X153585119Y-80384819D02*
X153680357Y-80384819D01*
X153680357Y-80384819D02*
X153823214Y-80432438D01*
X153823214Y-80432438D02*
X153870833Y-80480057D01*
X154823214Y-81384819D02*
X154251786Y-81384819D01*
X154537500Y-81384819D02*
X154537500Y-80384819D01*
X154537500Y-80384819D02*
X154442262Y-80527676D01*
X154442262Y-80527676D02*
X154347024Y-80622914D01*
X154347024Y-80622914D02*
X154251786Y-80670533D01*
X153833333Y-77454819D02*
X153261905Y-77454819D01*
X153547619Y-77454819D02*
X153547619Y-76454819D01*
X153547619Y-76454819D02*
X153452381Y-76597676D01*
X153452381Y-76597676D02*
X153357143Y-76692914D01*
X153357143Y-76692914D02*
X153261905Y-76740533D01*
X154690476Y-76788152D02*
X154690476Y-77454819D01*
X154261905Y-76788152D02*
X154261905Y-77311961D01*
X154261905Y-77311961D02*
X154309524Y-77407200D01*
X154309524Y-77407200D02*
X154404762Y-77454819D01*
X154404762Y-77454819D02*
X154547619Y-77454819D01*
X154547619Y-77454819D02*
X154642857Y-77407200D01*
X154642857Y-77407200D02*
X154690476Y-77359580D01*
X158095238Y-58169104D02*
X158571428Y-58169104D01*
X158000000Y-58454819D02*
X158333333Y-57454819D01*
X158333333Y-57454819D02*
X158666666Y-58454819D01*
X159142857Y-58454819D02*
X159047619Y-58407200D01*
X159047619Y-58407200D02*
X159000000Y-58311961D01*
X159000000Y-58311961D02*
X159000000Y-57454819D01*
X159523810Y-58454819D02*
X159523810Y-57788152D01*
X159523810Y-57454819D02*
X159476191Y-57502438D01*
X159476191Y-57502438D02*
X159523810Y-57550057D01*
X159523810Y-57550057D02*
X159571429Y-57502438D01*
X159571429Y-57502438D02*
X159523810Y-57454819D01*
X159523810Y-57454819D02*
X159523810Y-57550057D01*
X160000000Y-58454819D02*
X160000000Y-57788152D01*
X160000000Y-57883390D02*
X160047619Y-57835771D01*
X160047619Y-57835771D02*
X160142857Y-57788152D01*
X160142857Y-57788152D02*
X160285714Y-57788152D01*
X160285714Y-57788152D02*
X160380952Y-57835771D01*
X160380952Y-57835771D02*
X160428571Y-57931009D01*
X160428571Y-57931009D02*
X160428571Y-58454819D01*
X160428571Y-57931009D02*
X160476190Y-57835771D01*
X160476190Y-57835771D02*
X160571428Y-57788152D01*
X160571428Y-57788152D02*
X160714285Y-57788152D01*
X160714285Y-57788152D02*
X160809524Y-57835771D01*
X160809524Y-57835771D02*
X160857143Y-57931009D01*
X160857143Y-57931009D02*
X160857143Y-58454819D01*
X164704819Y-104833333D02*
X165419104Y-104833333D01*
X165419104Y-104833333D02*
X165561961Y-104880952D01*
X165561961Y-104880952D02*
X165657200Y-104976190D01*
X165657200Y-104976190D02*
X165704819Y-105119047D01*
X165704819Y-105119047D02*
X165704819Y-105214285D01*
X164704819Y-104452380D02*
X164704819Y-103833333D01*
X164704819Y-103833333D02*
X165085771Y-104166666D01*
X165085771Y-104166666D02*
X165085771Y-104023809D01*
X165085771Y-104023809D02*
X165133390Y-103928571D01*
X165133390Y-103928571D02*
X165181009Y-103880952D01*
X165181009Y-103880952D02*
X165276247Y-103833333D01*
X165276247Y-103833333D02*
X165514342Y-103833333D01*
X165514342Y-103833333D02*
X165609580Y-103880952D01*
X165609580Y-103880952D02*
X165657200Y-103928571D01*
X165657200Y-103928571D02*
X165704819Y-104023809D01*
X165704819Y-104023809D02*
X165704819Y-104309523D01*
X165704819Y-104309523D02*
X165657200Y-104404761D01*
X165657200Y-104404761D02*
X165609580Y-104452380D01*
X178704819Y-107273809D02*
X179704819Y-106940476D01*
X179704819Y-106940476D02*
X178704819Y-106607143D01*
X179704819Y-106273809D02*
X179038152Y-106273809D01*
X178704819Y-106273809D02*
X178752438Y-106321428D01*
X178752438Y-106321428D02*
X178800057Y-106273809D01*
X178800057Y-106273809D02*
X178752438Y-106226190D01*
X178752438Y-106226190D02*
X178704819Y-106273809D01*
X178704819Y-106273809D02*
X178800057Y-106273809D01*
X179704819Y-105797619D02*
X178704819Y-105797619D01*
X179085771Y-105797619D02*
X179038152Y-105702381D01*
X179038152Y-105702381D02*
X179038152Y-105511905D01*
X179038152Y-105511905D02*
X179085771Y-105416667D01*
X179085771Y-105416667D02*
X179133390Y-105369048D01*
X179133390Y-105369048D02*
X179228628Y-105321429D01*
X179228628Y-105321429D02*
X179514342Y-105321429D01*
X179514342Y-105321429D02*
X179609580Y-105369048D01*
X179609580Y-105369048D02*
X179657200Y-105416667D01*
X179657200Y-105416667D02*
X179704819Y-105511905D01*
X179704819Y-105511905D02*
X179704819Y-105702381D01*
X179704819Y-105702381D02*
X179657200Y-105797619D01*
X179704819Y-104892857D02*
X179038152Y-104892857D01*
X179228628Y-104892857D02*
X179133390Y-104845238D01*
X179133390Y-104845238D02*
X179085771Y-104797619D01*
X179085771Y-104797619D02*
X179038152Y-104702381D01*
X179038152Y-104702381D02*
X179038152Y-104607143D01*
X179657200Y-103892857D02*
X179704819Y-103988095D01*
X179704819Y-103988095D02*
X179704819Y-104178571D01*
X179704819Y-104178571D02*
X179657200Y-104273809D01*
X179657200Y-104273809D02*
X179561961Y-104321428D01*
X179561961Y-104321428D02*
X179181009Y-104321428D01*
X179181009Y-104321428D02*
X179085771Y-104273809D01*
X179085771Y-104273809D02*
X179038152Y-104178571D01*
X179038152Y-104178571D02*
X179038152Y-103988095D01*
X179038152Y-103988095D02*
X179085771Y-103892857D01*
X179085771Y-103892857D02*
X179181009Y-103845238D01*
X179181009Y-103845238D02*
X179276247Y-103845238D01*
X179276247Y-103845238D02*
X179371485Y-104321428D01*
X179038152Y-102988095D02*
X179704819Y-102988095D01*
X179038152Y-103416666D02*
X179561961Y-103416666D01*
X179561961Y-103416666D02*
X179657200Y-103369047D01*
X179657200Y-103369047D02*
X179704819Y-103273809D01*
X179704819Y-103273809D02*
X179704819Y-103130952D01*
X179704819Y-103130952D02*
X179657200Y-103035714D01*
X179657200Y-103035714D02*
X179609580Y-102988095D01*
X179704819Y-102511904D02*
X179038152Y-102511904D01*
X179228628Y-102511904D02*
X179133390Y-102464285D01*
X179133390Y-102464285D02*
X179085771Y-102416666D01*
X179085771Y-102416666D02*
X179038152Y-102321428D01*
X179038152Y-102321428D02*
X179038152Y-102226190D01*
X123583333Y-58679580D02*
X123535714Y-58727200D01*
X123535714Y-58727200D02*
X123392857Y-58774819D01*
X123392857Y-58774819D02*
X123297619Y-58774819D01*
X123297619Y-58774819D02*
X123154762Y-58727200D01*
X123154762Y-58727200D02*
X123059524Y-58631961D01*
X123059524Y-58631961D02*
X123011905Y-58536723D01*
X123011905Y-58536723D02*
X122964286Y-58346247D01*
X122964286Y-58346247D02*
X122964286Y-58203390D01*
X122964286Y-58203390D02*
X123011905Y-58012914D01*
X123011905Y-58012914D02*
X123059524Y-57917676D01*
X123059524Y-57917676D02*
X123154762Y-57822438D01*
X123154762Y-57822438D02*
X123297619Y-57774819D01*
X123297619Y-57774819D02*
X123392857Y-57774819D01*
X123392857Y-57774819D02*
X123535714Y-57822438D01*
X123535714Y-57822438D02*
X123583333Y-57870057D01*
X123916667Y-57774819D02*
X124535714Y-57774819D01*
X124535714Y-57774819D02*
X124202381Y-58155771D01*
X124202381Y-58155771D02*
X124345238Y-58155771D01*
X124345238Y-58155771D02*
X124440476Y-58203390D01*
X124440476Y-58203390D02*
X124488095Y-58251009D01*
X124488095Y-58251009D02*
X124535714Y-58346247D01*
X124535714Y-58346247D02*
X124535714Y-58584342D01*
X124535714Y-58584342D02*
X124488095Y-58679580D01*
X124488095Y-58679580D02*
X124440476Y-58727200D01*
X124440476Y-58727200D02*
X124345238Y-58774819D01*
X124345238Y-58774819D02*
X124059524Y-58774819D01*
X124059524Y-58774819D02*
X123964286Y-58727200D01*
X123964286Y-58727200D02*
X123916667Y-58679580D01*
X120120833Y-60204819D02*
X119549405Y-60204819D01*
X119835119Y-60204819D02*
X119835119Y-59204819D01*
X119835119Y-59204819D02*
X119739881Y-59347676D01*
X119739881Y-59347676D02*
X119644643Y-59442914D01*
X119644643Y-59442914D02*
X119549405Y-59490533D01*
X120977976Y-59538152D02*
X120977976Y-60204819D01*
X120549405Y-59538152D02*
X120549405Y-60061961D01*
X120549405Y-60061961D02*
X120597024Y-60157200D01*
X120597024Y-60157200D02*
X120692262Y-60204819D01*
X120692262Y-60204819D02*
X120835119Y-60204819D01*
X120835119Y-60204819D02*
X120930357Y-60157200D01*
X120930357Y-60157200D02*
X120977976Y-60109580D01*
X133738095Y-62454819D02*
X133738095Y-63264342D01*
X133738095Y-63264342D02*
X133785714Y-63359580D01*
X133785714Y-63359580D02*
X133833333Y-63407200D01*
X133833333Y-63407200D02*
X133928571Y-63454819D01*
X133928571Y-63454819D02*
X134119047Y-63454819D01*
X134119047Y-63454819D02*
X134214285Y-63407200D01*
X134214285Y-63407200D02*
X134261904Y-63359580D01*
X134261904Y-63359580D02*
X134309523Y-63264342D01*
X134309523Y-63264342D02*
X134309523Y-62454819D01*
X135309523Y-63454819D02*
X134738095Y-63454819D01*
X135023809Y-63454819D02*
X135023809Y-62454819D01*
X135023809Y-62454819D02*
X134928571Y-62597676D01*
X134928571Y-62597676D02*
X134833333Y-62692914D01*
X134833333Y-62692914D02*
X134738095Y-62740533D01*
X134011905Y-113954819D02*
X134011905Y-112954819D01*
X134011905Y-112954819D02*
X134583333Y-113954819D01*
X134583333Y-113954819D02*
X134583333Y-112954819D01*
X135059524Y-112954819D02*
X135059524Y-113764342D01*
X135059524Y-113764342D02*
X135107143Y-113859580D01*
X135107143Y-113859580D02*
X135154762Y-113907200D01*
X135154762Y-113907200D02*
X135250000Y-113954819D01*
X135250000Y-113954819D02*
X135440476Y-113954819D01*
X135440476Y-113954819D02*
X135535714Y-113907200D01*
X135535714Y-113907200D02*
X135583333Y-113859580D01*
X135583333Y-113859580D02*
X135630952Y-113764342D01*
X135630952Y-113764342D02*
X135630952Y-112954819D01*
X136678571Y-113859580D02*
X136630952Y-113907200D01*
X136630952Y-113907200D02*
X136488095Y-113954819D01*
X136488095Y-113954819D02*
X136392857Y-113954819D01*
X136392857Y-113954819D02*
X136250000Y-113907200D01*
X136250000Y-113907200D02*
X136154762Y-113811961D01*
X136154762Y-113811961D02*
X136107143Y-113716723D01*
X136107143Y-113716723D02*
X136059524Y-113526247D01*
X136059524Y-113526247D02*
X136059524Y-113383390D01*
X136059524Y-113383390D02*
X136107143Y-113192914D01*
X136107143Y-113192914D02*
X136154762Y-113097676D01*
X136154762Y-113097676D02*
X136250000Y-113002438D01*
X136250000Y-113002438D02*
X136392857Y-112954819D01*
X136392857Y-112954819D02*
X136488095Y-112954819D01*
X136488095Y-112954819D02*
X136630952Y-113002438D01*
X136630952Y-113002438D02*
X136678571Y-113050057D01*
X137583333Y-113954819D02*
X137107143Y-113954819D01*
X137107143Y-113954819D02*
X137107143Y-112954819D01*
X137916667Y-113431009D02*
X138250000Y-113431009D01*
X138392857Y-113954819D02*
X137916667Y-113954819D01*
X137916667Y-113954819D02*
X137916667Y-112954819D01*
X137916667Y-112954819D02*
X138392857Y-112954819D01*
X139011905Y-112954819D02*
X139202381Y-112954819D01*
X139202381Y-112954819D02*
X139297619Y-113002438D01*
X139297619Y-113002438D02*
X139392857Y-113097676D01*
X139392857Y-113097676D02*
X139440476Y-113288152D01*
X139440476Y-113288152D02*
X139440476Y-113621485D01*
X139440476Y-113621485D02*
X139392857Y-113811961D01*
X139392857Y-113811961D02*
X139297619Y-113907200D01*
X139297619Y-113907200D02*
X139202381Y-113954819D01*
X139202381Y-113954819D02*
X139011905Y-113954819D01*
X139011905Y-113954819D02*
X138916667Y-113907200D01*
X138916667Y-113907200D02*
X138821429Y-113811961D01*
X138821429Y-113811961D02*
X138773810Y-113621485D01*
X138773810Y-113621485D02*
X138773810Y-113288152D01*
X138773810Y-113288152D02*
X138821429Y-113097676D01*
X138821429Y-113097676D02*
X138916667Y-113002438D01*
X138916667Y-113002438D02*
X139011905Y-112954819D01*
X139869048Y-113573866D02*
X140630953Y-113573866D01*
X141630952Y-113002438D02*
X141535714Y-112954819D01*
X141535714Y-112954819D02*
X141392857Y-112954819D01*
X141392857Y-112954819D02*
X141250000Y-113002438D01*
X141250000Y-113002438D02*
X141154762Y-113097676D01*
X141154762Y-113097676D02*
X141107143Y-113192914D01*
X141107143Y-113192914D02*
X141059524Y-113383390D01*
X141059524Y-113383390D02*
X141059524Y-113526247D01*
X141059524Y-113526247D02*
X141107143Y-113716723D01*
X141107143Y-113716723D02*
X141154762Y-113811961D01*
X141154762Y-113811961D02*
X141250000Y-113907200D01*
X141250000Y-113907200D02*
X141392857Y-113954819D01*
X141392857Y-113954819D02*
X141488095Y-113954819D01*
X141488095Y-113954819D02*
X141630952Y-113907200D01*
X141630952Y-113907200D02*
X141678571Y-113859580D01*
X141678571Y-113859580D02*
X141678571Y-113526247D01*
X141678571Y-113526247D02*
X141488095Y-113526247D01*
X142535714Y-113288152D02*
X142535714Y-113954819D01*
X142297619Y-112907200D02*
X142059524Y-113621485D01*
X142059524Y-113621485D02*
X142678571Y-113621485D01*
X142964286Y-112954819D02*
X143583333Y-112954819D01*
X143583333Y-112954819D02*
X143250000Y-113335771D01*
X143250000Y-113335771D02*
X143392857Y-113335771D01*
X143392857Y-113335771D02*
X143488095Y-113383390D01*
X143488095Y-113383390D02*
X143535714Y-113431009D01*
X143535714Y-113431009D02*
X143583333Y-113526247D01*
X143583333Y-113526247D02*
X143583333Y-113764342D01*
X143583333Y-113764342D02*
X143535714Y-113859580D01*
X143535714Y-113859580D02*
X143488095Y-113907200D01*
X143488095Y-113907200D02*
X143392857Y-113954819D01*
X143392857Y-113954819D02*
X143107143Y-113954819D01*
X143107143Y-113954819D02*
X143011905Y-113907200D01*
X143011905Y-113907200D02*
X142964286Y-113859580D01*
X144535714Y-113954819D02*
X143964286Y-113954819D01*
X144250000Y-113954819D02*
X144250000Y-112954819D01*
X144250000Y-112954819D02*
X144154762Y-113097676D01*
X144154762Y-113097676D02*
X144059524Y-113192914D01*
X144059524Y-113192914D02*
X143964286Y-113240533D01*
X144964286Y-113954819D02*
X144964286Y-112954819D01*
X145535714Y-113954819D02*
X145107143Y-113383390D01*
X145535714Y-112954819D02*
X144964286Y-113526247D01*
X146297619Y-113431009D02*
X146440476Y-113478628D01*
X146440476Y-113478628D02*
X146488095Y-113526247D01*
X146488095Y-113526247D02*
X146535714Y-113621485D01*
X146535714Y-113621485D02*
X146535714Y-113764342D01*
X146535714Y-113764342D02*
X146488095Y-113859580D01*
X146488095Y-113859580D02*
X146440476Y-113907200D01*
X146440476Y-113907200D02*
X146345238Y-113954819D01*
X146345238Y-113954819D02*
X145964286Y-113954819D01*
X145964286Y-113954819D02*
X145964286Y-112954819D01*
X145964286Y-112954819D02*
X146297619Y-112954819D01*
X146297619Y-112954819D02*
X146392857Y-113002438D01*
X146392857Y-113002438D02*
X146440476Y-113050057D01*
X146440476Y-113050057D02*
X146488095Y-113145295D01*
X146488095Y-113145295D02*
X146488095Y-113240533D01*
X146488095Y-113240533D02*
X146440476Y-113335771D01*
X146440476Y-113335771D02*
X146392857Y-113383390D01*
X146392857Y-113383390D02*
X146297619Y-113431009D01*
X146297619Y-113431009D02*
X145964286Y-113431009D01*
D12*
%TO.C,J2*%
X166352000Y-91694000D02*
X166352000Y-93114000D01*
X166352000Y-93114000D02*
X170852000Y-93114000D01*
X166352000Y-97894000D02*
X170852000Y-97894000D01*
X166352000Y-99314000D02*
X166352000Y-97894000D01*
X168262000Y-96454000D02*
X168862000Y-96754000D01*
X168262000Y-97054000D02*
X168262000Y-96454000D01*
X168862000Y-96754000D02*
X168262000Y-97054000D01*
X171962000Y-94004000D02*
X171962000Y-94504000D01*
X171962000Y-94504000D02*
X177462000Y-94504000D01*
X171962000Y-96504000D02*
X171962000Y-97004000D01*
X171962000Y-97004000D02*
X177462000Y-97004000D01*
X177462000Y-94004000D02*
X171962000Y-94004000D01*
X177462000Y-94504000D02*
X177462000Y-94004000D01*
X177462000Y-96504000D02*
X171962000Y-96504000D01*
X177462000Y-97004000D02*
X177462000Y-96504000D01*
X178072000Y-91694000D02*
X166352000Y-91694000D01*
X178072000Y-95504000D02*
X178072000Y-91694000D01*
X178072000Y-95504000D02*
X178072000Y-99314000D01*
X178072000Y-99314000D02*
X166352000Y-99314000D01*
D13*
%TO.C,U2*%
X157988000Y-60071000D02*
X178308000Y-60071000D01*
X157988000Y-80391000D02*
X157988000Y-60071000D01*
X178308000Y-60071000D02*
X178308000Y-80391000D01*
X178308000Y-80391000D02*
X157988000Y-80391000D01*
D14*
X159358000Y-81031000D02*
G75*
G02*
X159158000Y-81031000I-100000J0D01*
G01*
X159158000Y-81031000D02*
G75*
G02*
X159358000Y-81031000I100000J0D01*
G01*
D12*
%TO.C,C2*%
X151105113Y-72533000D02*
X151105113Y-71967000D01*
X151145113Y-72767000D02*
X151145113Y-71733000D01*
X151185113Y-72927000D02*
X151185113Y-71573000D01*
X151225113Y-73055000D02*
X151225113Y-71445000D01*
X151265113Y-73164000D02*
X151265113Y-71336000D01*
X151305113Y-73261000D02*
X151305113Y-71239000D01*
X151345113Y-73348000D02*
X151345113Y-71152000D01*
X151385113Y-73427000D02*
X151385113Y-71073000D01*
X151425113Y-73501000D02*
X151425113Y-70999000D01*
X151465113Y-73569000D02*
X151465113Y-70931000D01*
X151505113Y-73633000D02*
X151505113Y-70867000D01*
X151545113Y-73693000D02*
X151545113Y-70807000D01*
X151585113Y-73749000D02*
X151585113Y-70751000D01*
X151625113Y-73803000D02*
X151625113Y-70697000D01*
X151665113Y-73854000D02*
X151665113Y-70646000D01*
X151705113Y-71210000D02*
X151705113Y-70598000D01*
X151705113Y-73902000D02*
X151705113Y-73290000D01*
X151745113Y-71210000D02*
X151745113Y-70551000D01*
X151745113Y-73949000D02*
X151745113Y-73290000D01*
X151785113Y-71210000D02*
X151785113Y-70507000D01*
X151785113Y-73993000D02*
X151785113Y-73290000D01*
X151825113Y-71210000D02*
X151825113Y-70465000D01*
X151825113Y-74035000D02*
X151825113Y-73290000D01*
X151865113Y-71210000D02*
X151865113Y-70425000D01*
X151865113Y-74075000D02*
X151865113Y-73290000D01*
X151905113Y-71210000D02*
X151905113Y-70386000D01*
X151905113Y-74114000D02*
X151905113Y-73290000D01*
X151945113Y-71210000D02*
X151945113Y-70349000D01*
X151945113Y-74151000D02*
X151945113Y-73290000D01*
X151985113Y-71210000D02*
X151985113Y-70314000D01*
X151985113Y-74186000D02*
X151985113Y-73290000D01*
X152025113Y-71210000D02*
X152025113Y-70280000D01*
X152025113Y-74220000D02*
X152025113Y-73290000D01*
X152065113Y-71210000D02*
X152065113Y-70247000D01*
X152065113Y-74253000D02*
X152065113Y-73290000D01*
X152105113Y-71210000D02*
X152105113Y-70215000D01*
X152105113Y-74285000D02*
X152105113Y-73290000D01*
X152145113Y-71210000D02*
X152145113Y-70185000D01*
X152145113Y-74315000D02*
X152145113Y-73290000D01*
X152185113Y-71210000D02*
X152185113Y-70156000D01*
X152185113Y-74344000D02*
X152185113Y-73290000D01*
X152225113Y-71210000D02*
X152225113Y-70128000D01*
X152225113Y-74372000D02*
X152225113Y-73290000D01*
X152265113Y-71210000D02*
X152265113Y-70101000D01*
X152265113Y-74399000D02*
X152265113Y-73290000D01*
X152305113Y-71210000D02*
X152305113Y-70075000D01*
X152305113Y-74425000D02*
X152305113Y-73290000D01*
X152345113Y-71210000D02*
X152345113Y-70051000D01*
X152345113Y-74449000D02*
X152345113Y-73290000D01*
X152385113Y-71210000D02*
X152385113Y-70027000D01*
X152385113Y-74473000D02*
X152385113Y-73290000D01*
X152425113Y-71210000D02*
X152425113Y-70004000D01*
X152425113Y-74496000D02*
X152425113Y-73290000D01*
X152465113Y-71210000D02*
X152465113Y-69982000D01*
X152465113Y-74518000D02*
X152465113Y-73290000D01*
X152505113Y-71210000D02*
X152505113Y-69961000D01*
X152505113Y-74539000D02*
X152505113Y-73290000D01*
X152545113Y-71210000D02*
X152545113Y-69941000D01*
X152545113Y-74559000D02*
X152545113Y-73290000D01*
X152585113Y-71210000D02*
X152585113Y-69921000D01*
X152585113Y-74579000D02*
X152585113Y-73290000D01*
X152625113Y-71210000D02*
X152625113Y-69903000D01*
X152625113Y-74597000D02*
X152625113Y-73290000D01*
X152665113Y-71210000D02*
X152665113Y-69885000D01*
X152665113Y-74615000D02*
X152665113Y-73290000D01*
X152705113Y-71210000D02*
X152705113Y-69868000D01*
X152705113Y-74632000D02*
X152705113Y-73290000D01*
X152745113Y-71210000D02*
X152745113Y-69852000D01*
X152745113Y-74648000D02*
X152745113Y-73290000D01*
X152785113Y-71210000D02*
X152785113Y-69837000D01*
X152785113Y-74663000D02*
X152785113Y-73290000D01*
X152825113Y-71210000D02*
X152825113Y-69822000D01*
X152825113Y-74678000D02*
X152825113Y-73290000D01*
X152865113Y-71210000D02*
X152865113Y-69808000D01*
X152865113Y-74692000D02*
X152865113Y-73290000D01*
X152905113Y-71210000D02*
X152905113Y-69795000D01*
X152905113Y-74705000D02*
X152905113Y-73290000D01*
X152945113Y-71210000D02*
X152945113Y-69783000D01*
X152945113Y-74717000D02*
X152945113Y-73290000D01*
X152985113Y-71210000D02*
X152985113Y-69771000D01*
X152985113Y-74729000D02*
X152985113Y-73290000D01*
X153025113Y-71210000D02*
X153025113Y-69760000D01*
X153025113Y-74740000D02*
X153025113Y-73290000D01*
X153065113Y-71210000D02*
X153065113Y-69749000D01*
X153065113Y-74751000D02*
X153065113Y-73290000D01*
X153105113Y-71210000D02*
X153105113Y-69740000D01*
X153105113Y-74760000D02*
X153105113Y-73290000D01*
X153145113Y-71210000D02*
X153145113Y-69731000D01*
X153145113Y-74769000D02*
X153145113Y-73290000D01*
X153185113Y-71210000D02*
X153185113Y-69722000D01*
X153185113Y-74778000D02*
X153185113Y-73290000D01*
X153225113Y-71210000D02*
X153225113Y-69714000D01*
X153225113Y-74786000D02*
X153225113Y-73290000D01*
X153265113Y-71210000D02*
X153265113Y-69707000D01*
X153265113Y-74793000D02*
X153265113Y-73290000D01*
X153305113Y-71210000D02*
X153305113Y-69701000D01*
X153305113Y-74799000D02*
X153305113Y-73290000D01*
X153345113Y-71210000D02*
X153345113Y-69695000D01*
X153345113Y-74805000D02*
X153345113Y-73290000D01*
X153385113Y-71210000D02*
X153385113Y-69690000D01*
X153385113Y-74810000D02*
X153385113Y-73290000D01*
X153425113Y-71210000D02*
X153425113Y-69685000D01*
X153425113Y-74815000D02*
X153425113Y-73290000D01*
X153465113Y-71210000D02*
X153465113Y-69681000D01*
X153465113Y-74819000D02*
X153465113Y-73290000D01*
X153505113Y-71210000D02*
X153505113Y-69678000D01*
X153505113Y-74822000D02*
X153505113Y-73290000D01*
X153545113Y-71210000D02*
X153545113Y-69675000D01*
X153545113Y-74825000D02*
X153545113Y-73290000D01*
X153585113Y-71210000D02*
X153585113Y-69673000D01*
X153585113Y-74827000D02*
X153585113Y-73290000D01*
X153625113Y-71210000D02*
X153625113Y-69671000D01*
X153625113Y-74829000D02*
X153625113Y-73290000D01*
X153665113Y-71210000D02*
X153665113Y-69670000D01*
X153665113Y-74830000D02*
X153665113Y-73290000D01*
X153705113Y-71210000D02*
X153705113Y-69670000D01*
X153705113Y-74830000D02*
X153705113Y-73290000D01*
X156259888Y-73975000D02*
X156259888Y-73475000D01*
X156509888Y-73725000D02*
X156009888Y-73725000D01*
X156325113Y-72250000D02*
G75*
G02*
X151085113Y-72250000I-2620000J0D01*
G01*
X151085113Y-72250000D02*
G75*
G02*
X156325113Y-72250000I2620000J0D01*
G01*
%TO.C,R1*%
X154713000Y-95784936D02*
X154713000Y-96239064D01*
X156183000Y-95784936D02*
X156183000Y-96239064D01*
%TO.C,Q1*%
X164570000Y-114372000D02*
X168170000Y-114372000D01*
X164531522Y-114360478D02*
G75*
G02*
X166370000Y-109921999I1838478J1838478D01*
G01*
X166370000Y-109922000D02*
G75*
G02*
X168208478Y-114360478I0J-2600000D01*
G01*
%TO.C,J6*%
X113800000Y-63890000D02*
X115130000Y-63890000D01*
X113800000Y-65000000D02*
X113800000Y-63890000D01*
X113800000Y-66460000D02*
X129160000Y-66460000D01*
X113800000Y-75090000D02*
X113800000Y-66460000D01*
X113800000Y-75090000D02*
X129160000Y-75090000D01*
X113920000Y-75090000D02*
X113920000Y-66460000D01*
X114038095Y-75090000D02*
X114038095Y-66460000D01*
X114156190Y-75090000D02*
X114156190Y-66460000D01*
X114274285Y-75090000D02*
X114274285Y-66460000D01*
X114392380Y-75090000D02*
X114392380Y-66460000D01*
X114510475Y-75090000D02*
X114510475Y-66460000D01*
X114628570Y-75090000D02*
X114628570Y-66460000D01*
X114746665Y-75090000D02*
X114746665Y-66460000D01*
X114770000Y-66460000D02*
X114770000Y-66110000D01*
X114864760Y-75090000D02*
X114864760Y-66460000D01*
X114982855Y-75090000D02*
X114982855Y-66460000D01*
X115100950Y-75090000D02*
X115100950Y-66460000D01*
X115219045Y-75090000D02*
X115219045Y-66460000D01*
X115337140Y-75090000D02*
X115337140Y-66460000D01*
X115455235Y-75090000D02*
X115455235Y-66460000D01*
X115490000Y-66460000D02*
X115490000Y-66110000D01*
X115573330Y-75090000D02*
X115573330Y-66460000D01*
X115691425Y-75090000D02*
X115691425Y-66460000D01*
X115809520Y-75090000D02*
X115809520Y-66460000D01*
X115927615Y-75090000D02*
X115927615Y-66460000D01*
X116045710Y-75090000D02*
X116045710Y-66460000D01*
X116163805Y-75090000D02*
X116163805Y-66460000D01*
X116281900Y-75090000D02*
X116281900Y-66460000D01*
X116400000Y-75090000D02*
X116400000Y-66460000D01*
X117310000Y-66460000D02*
X117310000Y-66050000D01*
X118030000Y-66460000D02*
X118030000Y-66050000D01*
X118940000Y-75090000D02*
X118940000Y-66460000D01*
X119850000Y-66460000D02*
X119850000Y-66050000D01*
X120570000Y-66460000D02*
X120570000Y-66050000D01*
X121480000Y-75090000D02*
X121480000Y-66460000D01*
X122390000Y-66460000D02*
X122390000Y-66050000D01*
X123110000Y-66460000D02*
X123110000Y-66050000D01*
X124020000Y-75090000D02*
X124020000Y-66460000D01*
X124930000Y-66460000D02*
X124930000Y-66050000D01*
X125650000Y-66460000D02*
X125650000Y-66050000D01*
X126560000Y-75090000D02*
X126560000Y-66460000D01*
X127470000Y-66460000D02*
X127470000Y-66050000D01*
X128190000Y-66460000D02*
X128190000Y-66050000D01*
X129160000Y-75090000D02*
X129160000Y-66460000D01*
%TO.C,J1*%
X166352000Y-82550000D02*
X166352000Y-83970000D01*
X166352000Y-83970000D02*
X170852000Y-83970000D01*
X166352000Y-88750000D02*
X170852000Y-88750000D01*
X166352000Y-90170000D02*
X166352000Y-88750000D01*
X168262000Y-87310000D02*
X168862000Y-87610000D01*
X168262000Y-87910000D02*
X168262000Y-87310000D01*
X168862000Y-87610000D02*
X168262000Y-87910000D01*
X171962000Y-84860000D02*
X171962000Y-85360000D01*
X171962000Y-85360000D02*
X177462000Y-85360000D01*
X171962000Y-87360000D02*
X171962000Y-87860000D01*
X171962000Y-87860000D02*
X177462000Y-87860000D01*
X177462000Y-84860000D02*
X171962000Y-84860000D01*
X177462000Y-85360000D02*
X177462000Y-84860000D01*
X177462000Y-87360000D02*
X171962000Y-87360000D01*
X177462000Y-87860000D02*
X177462000Y-87360000D01*
X178072000Y-82550000D02*
X166352000Y-82550000D01*
X178072000Y-86360000D02*
X178072000Y-82550000D01*
X178072000Y-86360000D02*
X178072000Y-90170000D01*
X178072000Y-90170000D02*
X166352000Y-90170000D01*
%TO.C,R2*%
X158727064Y-86515000D02*
X158272936Y-86515000D01*
X158727064Y-87985000D02*
X158272936Y-87985000D01*
%TO.C,R3*%
X160501064Y-112295000D02*
X160046936Y-112295000D01*
X160501064Y-113765000D02*
X160046936Y-113765000D01*
%TO.C,D1*%
X161346000Y-106950000D02*
X161346000Y-109810000D01*
X161346000Y-109810000D02*
X163266000Y-109810000D01*
X163266000Y-109810000D02*
X163266000Y-106950000D01*
%TO.C,C1*%
X154298752Y-78515000D02*
X153776248Y-78515000D01*
X154298752Y-79985000D02*
X153776248Y-79985000D01*
%TO.C,J4*%
X150940000Y-57590000D02*
X150940000Y-65410000D01*
X150940000Y-63810000D02*
X151860000Y-63810000D01*
X150940000Y-65410000D02*
X151860000Y-65410000D01*
X151700000Y-59850000D02*
X152700000Y-59850000D01*
X151700000Y-61450000D02*
X151700000Y-59850000D01*
X151860000Y-63810000D02*
X152140000Y-63810000D01*
X151860000Y-65410000D02*
X151860000Y-63810000D01*
X152700000Y-59850000D02*
X152700000Y-61450000D01*
X152700000Y-61450000D02*
X151700000Y-61450000D01*
X153500000Y-61950000D02*
X153500000Y-57590000D01*
X154500000Y-57590000D02*
X154500000Y-61950000D01*
X154500000Y-61950000D02*
X153500000Y-61950000D01*
X155300000Y-59850000D02*
X155300000Y-57590000D01*
X155300000Y-59850000D02*
X155300000Y-61450000D01*
X155300000Y-61450000D02*
X156300000Y-61450000D01*
X155800000Y-59850000D02*
X155800000Y-57590000D01*
X155860000Y-63810000D02*
X155860000Y-65025000D01*
X155860000Y-63810000D02*
X156140000Y-63810000D01*
X156140000Y-63810000D02*
X156140000Y-65410000D01*
X156140000Y-65410000D02*
X157060000Y-65410000D01*
X156300000Y-59850000D02*
X155300000Y-59850000D01*
X156300000Y-61450000D02*
X156300000Y-59850000D01*
X157060000Y-57590000D02*
X150940000Y-57590000D01*
X157060000Y-63810000D02*
X156140000Y-63810000D01*
X157060000Y-65410000D02*
X157060000Y-57590000D01*
%TO.C,J3*%
X166352000Y-100838000D02*
X166352000Y-102258000D01*
X166352000Y-102258000D02*
X170852000Y-102258000D01*
X166352000Y-107038000D02*
X170852000Y-107038000D01*
X166352000Y-108458000D02*
X166352000Y-107038000D01*
X168262000Y-105598000D02*
X168862000Y-105898000D01*
X168262000Y-106198000D02*
X168262000Y-105598000D01*
X168862000Y-105898000D02*
X168262000Y-106198000D01*
X171962000Y-103148000D02*
X171962000Y-103648000D01*
X171962000Y-103648000D02*
X177462000Y-103648000D01*
X171962000Y-105648000D02*
X171962000Y-106148000D01*
X171962000Y-106148000D02*
X177462000Y-106148000D01*
X177462000Y-103148000D02*
X171962000Y-103148000D01*
X177462000Y-103648000D02*
X177462000Y-103148000D01*
X177462000Y-105648000D02*
X171962000Y-105648000D01*
X177462000Y-106148000D02*
X177462000Y-105648000D01*
X178072000Y-100838000D02*
X166352000Y-100838000D01*
X178072000Y-104648000D02*
X178072000Y-100838000D01*
X178072000Y-104648000D02*
X178072000Y-108458000D01*
X178072000Y-108458000D02*
X166352000Y-108458000D01*
%TO.C,C3*%
X123488748Y-59265000D02*
X124011252Y-59265000D01*
X123488748Y-60735000D02*
X124011252Y-60735000D01*
D13*
%TO.C,U1*%
X131209000Y-61470000D02*
X131209000Y-111762000D01*
X131209000Y-111762000D02*
X149751000Y-111762000D01*
X149751000Y-61470000D02*
X131209000Y-61470000D01*
X149751000Y-111762000D02*
X149751000Y-61470000D01*
%TD*%
M02*
