M48
; DRILL file {KiCad 9.0.5} date 2026-03-24T08:14:20+0100
; FORMAT={-:-/ absolute / metric / decimal}
; #@! TF.CreationDate,2026-03-24T08:14:20+01:00
; #@! TF.GenerationSoftware,Kicad,Pcbnew,9.0.5
; #@! TF.FileFunction,Plated,1,2,PTH
FMAT,2
METRIC
; #@! TA.AperFunction,Plated,PTH,ViaDrill
T1C0.300
; #@! TA.AperFunction,Plated,PTH,ComponentDrill
T2C0.750
; #@! TA.AperFunction,Plated,PTH,ComponentDrill
T3C0.800
; #@! TA.AperFunction,Plated,PTH,ComponentDrill
T4C1.000
; #@! TA.AperFunction,Plated,PTH,ComponentDrill
T5C1.200
%
G90
G05
T1
X112.25Y-65.0
X127.75Y-61.5
X132.0Y-113.75
X141.25Y-90.25
X151.25Y-100.0
X151.5Y-95.75
X152.25Y-112.5
X154.25Y-89.5
X156.0Y-83.0
X156.25Y-75.75
X160.0Y-103.25
X163.0Y-83.25
X167.25Y-105.5
X172.25Y-110.25
X175.5Y-90.75
X176.0Y-100.0
X177.0Y-70.5
X177.5Y-81.5
T2
X153.0Y-63.95
X155.0Y-63.95
X165.1Y-112.522
X166.37Y-112.522
X167.64Y-112.522
T3
X152.705Y-72.25
X154.705Y-72.25
X159.258Y-61.214
X159.258Y-79.248
X161.798Y-61.214
X161.798Y-79.248
X164.338Y-61.214
X164.338Y-79.248
X166.878Y-61.214
X166.878Y-79.248
X169.418Y-61.214
X169.418Y-79.248
X171.958Y-61.214
X171.958Y-79.248
X174.498Y-61.214
X174.498Y-79.248
X177.038Y-61.214
X177.038Y-79.248
T4
X115.13Y-65.0
X117.67Y-65.0
X120.21Y-65.0
X122.75Y-65.0
X125.29Y-65.0
X127.83Y-65.0
X170.362Y-85.11
X170.362Y-87.61
X170.362Y-94.254
X170.362Y-96.754
X170.362Y-103.398
X170.362Y-105.898
T5
X132.86Y-70.36
X132.86Y-72.9
X132.86Y-75.44
X132.86Y-77.98
X132.86Y-80.52
X132.86Y-83.06
X132.86Y-85.6
X132.86Y-88.14
X132.86Y-90.68
X132.86Y-93.22
X132.86Y-95.76
X132.86Y-98.3
X132.86Y-100.84
X132.86Y-103.38
X132.86Y-105.92
X145.56Y-65.28
X148.1Y-62.74
X148.1Y-65.28
X148.1Y-67.82
X148.1Y-70.36
X148.1Y-72.9
X148.1Y-75.44
X148.1Y-77.98
X148.1Y-80.52
X148.1Y-83.06
X148.1Y-85.6
X148.1Y-88.14
X148.1Y-90.68
X148.1Y-93.22
X148.1Y-95.76
X148.1Y-98.3
X148.1Y-100.84
X148.1Y-103.38
X148.1Y-105.92
M30
